<?xml version="1.0" encoding="utf-8"?>
<!-- Generator: Adobe Illustrator 22.0.1, SVG Export Plug-In . SVG Version: 6.00 Build 0)  -->
<svg version="1.1" xmlns="http://www.w3.org/2000/svg" xmlns:xlink="http://www.w3.org/1999/xlink" x="0px" y="0px"
	 viewBox="0 0 1000 1000" style="enable-background:new 0 0 1000 1000;" xml:space="preserve">
<style type="text/css">
	.st0{fill:#5941A9;}
	.st1{fill:#25A18E;}
	.st2{fill:#FF5E5B;}
	.st3{fill:#FFFFFF;}
	.st4{fill:#06070E;}
</style>
<g id="Layer_1">
	<g>
		<g>
			<path class="st0" d="M271.2,483.7c0,11.1,9.1,20.2,20.2,20.2h20.7v21.5h-20.7c-23,0-41.6-18.7-41.6-41.6
				c0-23,18.7-41.6,41.6-41.6h20.7v21.5h-20.7C280.2,463.5,271.2,472.6,271.2,483.7z"/>
			<path class="st0" d="M320.8,483.7c0-24.2,19.6-43.9,43.9-43.9c24.2,0,43.9,19.6,43.9,43.9s-19.6,43.9-43.9,43.9
				C340.4,527.6,320.8,508,320.8,483.7z M342.2,483.7c0,12.4,10,22.4,22.4,22.4c12.4,0,22.4-10,22.4-22.4c0-12.4-10-22.4-22.4-22.4
				C352.2,461.3,342.2,471.3,342.2,483.7z"/>
			<path class="st0" d="M453.5,461.3c-7,0-12.6,5.6-12.6,12.6v51.5h-21.5v-51.5c0-18.9,15.2-34.1,34.1-34.1c9.1,0,17.2,3.5,23.3,9.3
				c6.1-5.7,14.3-9.3,23.3-9.3c18.9,0,34.1,15.2,34.1,34.1v51.5h-21.5v-51.5c0-7-5.6-12.6-12.6-12.6c-7,0-12.6,5.6-12.6,12.6v51.5
				h-21.5v-51.5C466.1,466.9,460.5,461.3,453.5,461.3z"/>
			<path class="st1" d="M633,482.6c0,23.7-19.1,42.8-42.8,42.8H569v34.8h-21.5v-77.6c0-23.5,19.1-42.8,42.8-42.8
				C613.9,439.8,633,458.9,633,482.6z M569,503.9h21.3c11.7,0,21.3-9.6,21.3-21.3c0-11.7-9.6-21.3-21.3-21.3
				c-11.7,0-21.3,9.6-21.3,21.3V503.9z"/>
			<path class="st0" d="M666.9,525.4h-21.5v-51.1c0-17.8,14.4-32.2,32.2-32.2h18.1v21.5h-18.1c-5.9,0-10.7,4.8-10.7,10.7V525.4z"/>
			<path class="st0" d="M703.3,483.7c0-24.2,19.6-43.9,43.9-43.9s43.9,19.6,43.9,43.9s-19.6,43.9-43.9,43.9S703.3,508,703.3,483.7z
				 M724.8,483.7c0,12.4,10,22.4,22.4,22.4s22.4-10,22.4-22.4c0-12.4-10-22.4-22.4-22.4S724.8,471.3,724.8,483.7z"/>
		</g>
		<circle class="st2" cx="222" cy="483.8" r="13.1"/>
	</g>
</g>
<g id="Layer_2">
</g>
<g id="Layer_3">
</g>
<g id="Layer_4">
</g>
</svg>
